<svg version="1.1" xmlns="http://www.w3.org/2000/svg" viewBox="0 0 220.2 170.9" fill="#fff">
<g transform="matrix(1.3333333,0,0,-1.3333333,1064.6844,913.94563)" >
	<g transform="matrix(1.4132714,0,0,1.4132714,-736.79905,685.45924)">
		<path d="M0-0.5v-84.1l19-6v70.5c0,3.3,1.5,5.5,3.9,4.8c3.1-0.9,3.7-3.9,3.7-7.2
			v-28.2c11.9-5.7,21.2,0,21.2,15.1c0,15.5-5.5,22.4-21.6,27.9C19.9-5.6,8.1-2,0-0.5"/>
	</g>
	<g transform="matrix(1.4132714,0,0,1.4132714,-704.75735,575.41494)">
		<path d="M0-0.5l30.6,10.9c3.5,1.3,4,3,1.2,3.9c-2.8,0.9-7.9,0.7-11.4-0.6L0,6.5V18
			l1.2,0.4c0,0,5.9,2.1,14.2,3c8.3,0.9,18.4-0.1,26.4-3.1c9-2.9,10-7,7.7-9.9c-2.3-2.9-7.9-4.9-7.9-4.9L0-11.6"/>
	</g>
	<g transform="matrix(1.4132714,0,0,1.4132714,-786.12505,577.05284)">
		<path d="M0-0.5c-9.2,2.6-10.7,8-6.5,11.1c3.9,2.9,10.5,5,10.5,5l27.3,9.7V14.3
			l-19.6-7c-3.5-1.2-4-3-1.2-3.9c2.8-1,7.9-0.7,11.4,0.6l9.4,3.4v-9.9c-0.6-0.1-1.3-0.2-1.9-0.3C19.9-4.4,9.9-3.8,0-0.5"/>
	</g>
</g>
</svg>
