<svg version="1.1" xmlns="http://www.w3.org/2000/svg" xmlns:xlink="http://www.w3.org/1999/xlink"
	 viewBox="0 0 320.8 319.2" >
<path fill="#fff" d="M160.4,126.8C160.4,126.8,160.8,126.8,160.4,126.8C208.8,163.6,290.8,254,266,279.6c-28.4,24.8-65.2,39.6-105.6,39.6
	s-77.6-14.8-105.6-39.6C29.6,254,112,163.6,160,127.2C160,126.8,160.4,126.8,160.4,126.8L160.4,126.8z M244,21.6
	C219.6,6.8,192.8-2,160.4-2s-59.2,8.8-83.6,23.6c-0.4,0-0.4,0.4-0.4,0.8s0.4,0.4,0.8,0.4c31.2-6.8,78.4,20,82.8,22.8h0.8
	c4.4-2.8,51.6-29.6,82.8-22.8c0.4,0,0.8,0,0.8-0.4S244.4,21.6,244,21.6L244,21.6z M48,44c-0.4,0-0.4,0.4-0.8,0.4
	C18,73.6,0,114,0,158.4c0,36.4,12.4,70.4,32.8,97.2c0,0.4,0.4,0.4,0.8,0.4s0.4-0.4,0-0.8c-12.4-38,50.4-129.6,82.8-168l0.4-0.4
	c0-0.4,0-0.4-0.4-0.4C67.2,37.6,50.8,42.8,48,44L48,44z M204.4,86l-0.4,0.4c0,0,0,0.4,0.4,0.4c32.4,38.4,94.8,130,82.8,168v0.8
	c0.4,0,0.8,0,0.8-0.4c20.4-26.8,32.8-60.8,32.8-97.2c0-44.4-18-84.8-47.6-114c-0.4-0.4-0.4-0.4-0.8-0.4
	C270,42.8,253.6,37.6,204.4,86L204.4,86z"/>
</svg>
