<?xml version="1.0" encoding="utf-8"?>
<!-- Generator: Adobe Illustrator 26.4.1, SVG Export Plug-In . SVG Version: 6.00 Build 0)  -->
<svg version="1.1" id="Layer_1" xmlns="http://www.w3.org/2000/svg" xmlns:xlink="http://www.w3.org/1999/xlink" x="0px" y="0px"
	 viewBox="0 0 256 256" style="enable-background:new 0 0 256 256;" xml:space="preserve">
<style type="text/css">
	.st0{clip-path:url(#SVGID_00000118362077967618553050000001033864957694665387_);}
	.st1{fill-rule:evenodd;clip-rule:evenodd;fill:#FFFFFF;}
</style>
<g>
	<g>
		<defs>
			<rect id="SVGID_1_" width="256" height="256"/>
		</defs>
		<clipPath id="SVGID_00000103233022148632322160000011887165341844764569_">
			<use xlink:href="#SVGID_1_"  style="overflow:visible;"/>
		</clipPath>
		<g style="clip-path:url(#SVGID_00000103233022148632322160000011887165341844764569_);">
			<path class="st1" d="M41.01,33.92C64.63,12.12,95.59,0.01,127.73,0l0.06,0.2c23.8-0.01,47.13,6.63,67.36,19.16
				c20.23,12.53,36.57,30.46,47.18,51.76c10.6,21.31,15.05,45.15,12.84,68.85c-2.21,23.7-10.98,46.31-25.34,65.29
				c-14.36,18.98-33.73,33.58-55.93,42.16c-22.2,8.57-46.36,10.78-69.74,6.38c-23.39-4.4-45.09-15.25-62.65-31.31
				c-17.56-16.06-30.3-36.7-36.77-59.61l49.03,20.28c1.79,8.79,6.78,16.6,14,21.92s16.16,7.77,25.08,6.88
				c8.92-0.89,17.2-5.06,23.22-11.7c6.03-6.64,9.37-15.28,9.39-24.25v-1.71l43.48-31.02h1.01c9.54,0,18.87-2.83,26.8-8.13
				c7.93-5.3,14.12-12.84,17.77-21.65c3.65-8.82,4.61-18.52,2.75-27.87c-1.86-9.36-6.46-17.95-13.2-24.7s-15.34-11.34-24.7-13.2
				c-9.36-1.86-19.06-0.91-27.87,2.75c-8.82,3.65-16.35,9.83-21.65,17.77c-5.3,7.93-8.13,17.26-8.13,26.8v0.51l-30.49,44.18h-2.02
				c-7.27-0.01-14.37,2.19-20.36,6.31L0.28,117.66C2.85,85.62,17.39,55.73,41.01,33.92z M80.44,194.1l-15.74-6.51
				c2.28,4.76,5.9,8.75,10.41,11.49c4.51,2.74,9.72,4.1,15,3.92c5.27-0.18,10.38-1.88,14.7-4.92c4.32-3.03,7.66-7.25,9.62-12.15
				c1.96-4.9,2.45-10.26,1.41-15.44c-1.04-5.17-3.56-9.94-7.26-13.7c-3.7-3.76-8.41-6.37-13.57-7.5
				c-5.16-1.13-10.53-0.74-15.46,1.14l16.24,6.73c4.76,2.13,8.51,6.03,10.43,10.88c1.93,4.85,1.88,10.26-0.12,15.07
				c-2.01,4.81-5.81,8.66-10.61,10.7c-4.8,2.05-10.2,2.14-15.07,0.26V194.1z M196.68,77.16c3.53,5.29,5.41,11.51,5.4,17.87
				c-0.02,8.52-3.42,16.68-9.44,22.69c-6.02,6.02-14.19,9.41-22.7,9.42c-6.36,0-12.57-1.89-17.86-5.42
				c-5.29-3.53-9.41-8.55-11.84-14.43c-2.43-5.88-3.07-12.34-1.82-18.58c1.24-6.24,4.31-11.96,8.8-16.46
				c4.5-4.49,10.23-7.55,16.47-8.79c6.24-1.24,12.7-0.6,18.57,1.84C188.14,67.75,193.16,71.87,196.68,77.16z M149.91,81.6
				c-2.65,3.97-4.06,8.65-4.06,13.42c0.01,6.4,2.56,12.54,7.08,17.06c4.53,4.52,10.67,7.06,17.07,7.06c4.78,0,9.45-1.42,13.42-4.07
				c3.97-2.65,7.07-6.43,8.89-10.84c1.83-4.41,2.3-9.27,1.37-13.96c-0.93-4.69-3.24-8.99-6.62-12.36c-3.38-3.38-7.69-5.67-12.37-6.6
				c-4.69-0.93-9.54-0.45-13.96,1.39C156.33,74.53,152.56,77.63,149.91,81.6z"/>
		</g>
	</g>
</g>
</svg>
